<svg width="25" height="25" viewBox="0 0 25 25" fill="none" xmlns="http://www.w3.org/2000/svg">
<path d="M1.85782 23.1422L1.85774 23.1422C1.30855 22.593 1 21.8481 1 21.0714V3.92857C1 3.15186 1.30854 2.40697 1.85776 1.85777L1.85777 1.85776C2.40697 1.30854 3.15186 1 3.92857 1H16.5857C16.6047 1 16.6228 1.00757 16.6361 1.0208L16.6363 1.02105C16.6496 1.03435 16.6571 1.05244 16.6571 1.07143C16.6571 1.09042 16.6496 1.10851 16.6363 1.12181L16.6361 1.12206C16.6228 1.13529 16.6047 1.14286 16.5857 1.14286H3.92857C3.18975 1.14286 2.48119 1.43636 1.95878 1.95878C1.43636 2.48119 1.14286 3.18975 1.14286 3.92857V21.0714C1.14286 21.8102 1.43633 22.5188 1.95881 23.0413C2.48121 23.5636 3.18975 23.8571 3.92857 23.8571H21.0714C21.8102 23.8571 22.5188 23.5637 23.0413 23.0412C23.5637 22.5188 23.8571 21.8102 23.8571 21.0714V10.0571C23.8571 10.0382 23.8647 10.0201 23.878 10.0068L23.8782 10.0065C23.8915 9.99329 23.9096 9.98571 23.9286 9.98571C23.9476 9.98571 23.9657 9.99329 23.9789 10.0065L23.9792 10.0068C23.9925 10.0201 24 10.0382 24 10.0571V21.0714C24 21.8481 23.6915 22.593 23.1422 23.1421L23.1421 23.1422C22.593 23.6915 21.8481 24 21.0714 24H3.92857C3.15184 24 2.40699 23.6915 1.85782 23.1422Z" stroke="#111111" stroke-width="2"/>
<path d="M10.3572 16.0857L10.35 16.0785L6.2668 11.9953C6.26877 11.9927 6.27093 11.9902 6.27326 11.9878C6.27575 11.9853 6.27839 11.983 6.28117 11.981L9.60719 15.307L10.3118 16.0116L11.0189 15.3095L23.0038 3.4089C23.0068 3.41112 23.0097 3.41359 23.0124 3.41629L23.7194 2.70908M10.3572 16.0857L22.5 2.49987C22.7 2.40438 22.9246 2.37323 23.143 2.4107M10.3572 16.0857L10.3643 16.0785L23.0189 3.42387M10.3572 16.0857L11.0714 16.7856L23.9286 3.92844M23.7194 2.70908C23.876 2.86575 23.9803 3.06714 24.0177 3.28551C24.0553 3.50388 24.0242 3.72851 23.9286 3.92844M23.7194 2.70908L23.0121 3.41596C23.0146 3.41845 23.0169 3.42109 23.0189 3.42387M23.7194 2.70908C23.5627 2.55241 23.3613 2.44817 23.143 2.4107M23.9286 3.92844L23.3931 3.39298L23.3928 3.39263L23.2215 3.22133L23.0189 3.42387M23.9286 3.92844L23.0264 3.49715C23.0326 3.48404 23.0347 3.46936 23.0322 3.45508L23.0321 3.45444C23.0302 3.44346 23.0257 3.43296 23.0189 3.42387M23.143 2.4107L23.0352 3.03883L23.0352 3.03889L23.143 2.4107Z" stroke="#111111" stroke-width="2"/>
</svg>
