<svg width="28" height="28" viewBox="0 0 28 28" fill="none" xmlns="http://www.w3.org/2000/svg">
<path d="M26.9997 5.65193C27.0008 6.02121 26.9287 6.38704 26.7877 6.72834C26.6467 7.06963 26.4395 7.37964 26.1781 7.6405L20.6054 13.2132L9.26933 24.5135L2.57727 25.3947L3.48225 18.7265L14.8064 7.39044L20.3791 1.81769C20.9078 1.29268 21.6226 0.998047 22.3677 0.998047C23.1127 0.998047 23.8276 1.29268 24.3563 1.81769L26.2019 3.66336C26.4596 3.92578 26.6627 4.2366 26.7996 4.57789C26.9365 4.91919 27.0046 5.28422 26.9997 5.65193Z" stroke="#111111" stroke-width="2" stroke-miterlimit="10"/>
<path d="M17.7 4.48486L23.5109 10.2958" stroke="#111111" stroke-width="2" stroke-miterlimit="10"/>
<path d="M9.2813 24.5137L2.58923 25.3948L3.4823 18.7266C4.87842 19.0838 6.15305 19.8092 7.17311 20.8272C8.19316 21.8451 8.92123 23.1183 9.2813 24.5137Z" stroke="#111111" stroke-width="2" stroke-miterlimit="10"/>
<path d="M20.6053 7.39038L7.17358 20.8221" stroke="#111111" stroke-width="2" stroke-miterlimit="10"/>
<path d="M17.4975 10.4983L15.8542 12.1415" stroke="#111111" stroke-width="2" stroke-miterlimit="10"/>
<path d="M8.98013 1.57822L2 8.55835L7.81818 14.3765L14.7983 7.3964L8.98013 1.57822Z" stroke="#111111" stroke-width="2" stroke-miterlimit="10"/>
<path d="M20.6017 13.2035L13.6216 20.1836L19.4398 26.0018L26.4199 19.0216L20.6017 13.2035Z" stroke="#111111" stroke-width="2" stroke-miterlimit="10"/>
<path d="M4.89929 11.4628L7.23318 9.14087" stroke="#111111" stroke-width="2" stroke-miterlimit="10"/>
<path d="M16.533 23.0966L18.8549 20.7627" stroke="#111111" stroke-width="2" stroke-miterlimit="10"/>
</svg>
