<?xml version="1.0" standalone="no"?>
<!DOCTYPE svg PUBLIC "-//W3C//DTD SVG 20010904//EN"
 "http://www.w3.org/TR/2001/REC-SVG-20010904/DTD/svg10.dtd">
<svg version="1.0" xmlns="http://www.w3.org/2000/svg"
 width="768.000000pt" height="768.000000pt" viewBox="0 0 768.000000 768.000000"
 preserveAspectRatio="xMidYMid meet">
<metadata>
Created by potrace 1.14, written by Peter Selinger 2001-2017
</metadata>
<g transform="translate(0.000000,768.000000) scale(0.100000,-0.100000)"
fill="#000000" stroke="none">
<path d="M3832 7673 l3838 -3 3 -3838 2 -3837 3 3843 2 3842 -3842 -2 -3843
-3 3837 -2z"/>
<path d="M2095 6175 c-44 -7 -98 -18 -120 -25 -157 -51 -282 -165 -339 -310
-43 -109 -52 -297 -21 -450 17 -85 99 -227 174 -300 25 -25 152 -133 282 -242
410 -342 462 -407 472 -585 11 -183 -71 -285 -231 -286 -37 -1 -89 5 -115 12
-112 32 -195 177 -222 386 -18 135 -8 131 -203 81 -88 -22 -163 -47 -170 -55
-27 -35 6 -226 63 -362 108 -256 324 -392 620 -390 244 2 404 70 526 221 87
107 122 221 122 395 0 190 -41 311 -161 470 -87 116 -131 158 -397 380 -132
110 -255 214 -273 230 -90 80 -132 180 -127 298 6 140 92 218 242 218 186 1
276 -96 308 -336 1 -11 3 -32 4 -47 0 -17 10 -33 24 -42 20 -13 36 -11 170 24
148 38 179 54 172 90 -1 8 -6 38 -10 65 -5 28 -9 52 -10 55 -22 92 -34 129
-67 198 -69 141 -166 228 -310 276 -116 39 -265 51 -403 31z"/>
<path d="M3628 6179 c-321 -32 -511 -220 -564 -561 -19 -122 -21 -205 -21
-710 0 -561 3 -616 43 -783 9 -38 22 -76 28 -84 6 -8 10 -17 9 -20 -2 -9 33
-81 54 -112 97 -142 248 -230 433 -253 69 -9 228 -9 295 -1 290 36 467 226
511 550 3 28 8 59 10 70 2 11 5 91 5 177 2 124 -1 159 -12 171 -22 21 -352 22
-370 0 -9 -10 -14 -66 -15 -186 -3 -204 -14 -290 -46 -353 -39 -80 -111 -112
-238 -108 -98 2 -146 19 -194 67 -45 45 -72 112 -84 209 -9 68 -9 1243 0 1323
15 144 53 215 133 255 65 32 221 39 288 13 112 -43 137 -117 141 -416 2 -115
6 -171 14 -179 9 -9 63 -13 183 -13 152 -1 172 1 186 17 14 16 16 42 15 176
-4 364 -86 556 -287 673 -118 69 -310 98 -517 78z"/>
<path d="M4678 6161 c-7 -2 -16 -9 -20 -15 -4 -6 -8 -560 -8 -1231 0 -1152 1
-1221 18 -1231 26 -16 368 -12 384 4 10 10 13 130 13 565 l0 552 298 3 297 2
0 -554 c0 -500 2 -555 16 -567 25 -21 370 -21 387 0 17 20 18 2436 0 2460 -16
23 -359 25 -385 3 -17 -14 -18 -52 -18 -526 l0 -511 -295 0 c-162 0 -296 2
-296 5 -1 3 -2 233 -3 512 -1 400 -4 510 -14 520 -10 10 -58 13 -187 13 -95 0
-179 -1 -187 -4z"/>
<path d="M1103 3120 c-137 -45 -202 -142 -203 -301 0 -158 37 -222 226 -384
249 -214 294 -273 294 -387 0 -104 -51 -158 -150 -158 -65 0 -110 24 -140 72
-23 37 -47 114 -54 172 -3 21 -7 40 -10 43 -2 3 -42 -6 -88 -19 -77 -21 -83
-25 -81 -48 9 -147 86 -285 189 -338 73 -37 202 -49 289 -27 132 34 222 148
229 290 7 149 -36 249 -163 375 -81 79 -180 169 -240 215 -85 65 -123 131
-123 211 -1 101 48 149 152 149 52 0 72 -5 97 -23 40 -28 70 -91 79 -162 3
-30 8 -57 9 -58 2 -2 39 5 82 16 l78 20 -1 50 c-2 58 -35 154 -71 200 -33 44
-90 80 -151 96 -70 19 -187 17 -249 -4z"/>
<path d="M2307 3128 c-9 -5 -17 -6 -17 -3 0 13 -101 -47 -130 -77 -34 -35 -65
-95 -75 -143 -6 -35 -7 -141 -1 -170 25 -114 58 -159 222 -300 172 -148 252
-229 274 -278 9 -20 18 -65 19 -100 3 -108 -49 -168 -147 -169 -116 0 -177 80
-198 260 -1 13 -5 26 -8 29 -2 3 -42 -6 -88 -19 -70 -20 -83 -26 -81 -43 6
-65 16 -120 23 -134 4 -9 15 -33 24 -55 36 -84 115 -154 200 -177 95 -26 227
-16 304 25 152 79 205 310 111 487 -42 79 -101 142 -257 276 -205 176 -224
200 -224 298 -2 116 88 178 208 145 70 -20 124 -110 124 -207 0 -36 8 -39 56
-23 16 5 48 14 72 20 48 12 52 27 28 117 -36 135 -105 210 -220 240 -38 10
-202 11 -219 1z"/>
<path d="M6340 3122 c-97 -32 -175 -117 -195 -209 -12 -61 -7 -177 10 -228 28
-82 67 -127 227 -266 233 -200 267 -244 276 -354 9 -112 -47 -177 -154 -177
-105 0 -166 79 -190 245 -3 26 -11 47 -18 47 -6 0 -44 -10 -85 -23 -50 -15
-75 -28 -77 -39 -4 -30 22 -132 50 -195 33 -74 86 -125 164 -161 78 -35 218
-37 304 -3 190 74 252 327 131 526 -55 88 -83 116 -304 305 -135 115 -162 155
-163 240 0 95 40 145 126 156 115 16 183 -51 204 -201 4 -22 8 -42 10 -44 4
-4 154 36 161 43 10 10 -17 129 -40 179 -34 74 -70 112 -135 143 -48 23 -72
27 -157 29 -68 2 -114 -2 -145 -13z"/>
<path d="M1735 3121 c-2 -4 -4 -314 -4 -689 l-1 -682 50 -1 c64 -1 116 -1 134
0 11 1 13 113 14 691 l0 691 -94 -2 c-52 -1 -96 -5 -99 -8z"/>
<path d="M2819 3114 c0 -8 -1 -30 -1 -49 0 -92 -11 -83 110 -82 59 0 112 -2
118 -5 6 -4 9 -231 9 -617 l-1 -611 31 -1 c16 0 60 -1 97 -2 38 -1 69 2 71 8
2 6 3 283 3 618 l-1 607 30 1 c16 0 68 1 115 2 l85 2 0 72 1 71 -333 1 c-282
0 -333 -2 -334 -15z"/>
<path d="M3583 2439 l0 -689 23 0 c151 -3 515 -1 521 3 7 4 8 36 4 119 -1 16
-17 17 -176 15 l-175 -2 0 253 0 252 140 0 c158 0 141 -11 143 90 l0 45 -141
3 -142 3 0 224 c0 173 3 225 13 226 6 0 85 1 175 1 l162 0 0 73 0 74 -274 -1
-273 0 0 -689z"/>
<path d="M4283 3117 c-9 -14 -8 -5 -17 -487 -4 -195 -9 -473 -12 -617 l-5
-263 23 -1 c41 -1 133 3 136 6 3 3 13 505 16 812 0 78 4 139 7 135 5 -5 80
-313 94 -382 2 -8 22 -94 45 -190 23 -96 43 -179 44 -185 31 -138 40 -175 46
-185 7 -11 105 -19 114 -9 2 3 61 248 72 302 2 10 6 27 9 37 3 10 7 27 9 37
10 47 140 592 142 590 2 -2 17 -831 16 -914 l0 -53 82 0 81 0 -1 78 c-2 69
-10 475 -19 942 -2 96 -4 216 -4 266 l-1 91 -100 1 c-85 2 -100 -1 -100 -14 0
-8 -9 -52 -19 -97 -21 -87 -140 -618 -147 -652 -2 -11 -20 -94 -41 -185 -39
-173 -38 -171 -58 -70 -2 14 -32 149 -66 300 -33 151 -62 284 -65 295 -2 11
-11 52 -19 90 -9 39 -25 111 -36 160 -11 50 -25 109 -31 132 l-10 42 -89 0
c-57 0 -91 -5 -96 -12z"/>
<path d="M5581 3107 c-5 -12 -12 -38 -15 -57 -4 -19 -23 -105 -41 -190 -19
-85 -36 -166 -38 -180 -3 -14 -26 -122 -52 -240 -26 -118 -58 -267 -71 -330
-14 -63 -29 -131 -34 -150 -5 -19 -11 -46 -14 -60 -3 -14 -9 -49 -15 -79 -16
-79 -17 -76 46 -74 32 1 75 2 96 2 30 1 37 5 37 21 0 11 14 88 30 172 17 83
30 152 30 152 0 5 268 -1 276 -6 6 -4 14 -27 18 -50 3 -24 13 -79 21 -123 8
-44 18 -98 21 -120 4 -22 7 -41 8 -42 1 -1 43 -4 94 -5 107 -4 102 -12 73 114
-17 74 -45 204 -57 264 -2 12 -18 82 -34 155 -17 73 -32 144 -35 158 -2 15
-16 78 -31 141 -14 63 -28 126 -30 140 -8 42 -74 343 -82 375 l-8 30 -93 2
c-86 1 -93 0 -100 -20z m149 -522 c5 -27 20 -113 35 -189 14 -76 24 -144 22
-150 -2 -7 -43 -11 -110 -11 -118 -1 -114 -4 -98 70 5 22 12 56 15 75 7 40 6
38 47 255 29 153 35 184 39 195 2 5 26 -118 50 -245z"/>
</g>
</svg>
