<?xml version="1.0" standalone="no"?>
<!DOCTYPE svg PUBLIC "-//W3C//DTD SVG 20010904//EN"
 "http://www.w3.org/TR/2001/REC-SVG-20010904/DTD/svg10.dtd">
<svg version="1.0" xmlns="http://www.w3.org/2000/svg"
 width="1500.000000pt" height="1500.000000pt" viewBox="0 0 1500.000000 1500.000000"
 preserveAspectRatio="xMidYMid meet">
<metadata>
Created by potrace 1.14, written by Peter Selinger 2001-2017
</metadata>
<g transform="translate(0.000000,1500.000000) scale(0.100000,-0.100000)"
fill="#000000" stroke="none">
<path d="M939 14966 c-2 -2 -22 -7 -44 -10 -115 -17 -254 -66 -354 -126 -261
-154 -446 -419 -498 -717 -10 -59 -11 -13148 -1 -13218 46 -311 268 -615 553
-754 97 -47 185 -76 285 -96 114 -21 13128 -21 13240 1 270 52 491 190 655
409 78 104 150 273 181 421 5 21 9 2996 10 6609 2 6377 2 6573 -17 6660 -54
260 -195 477 -414 637 -65 47 -191 110 -275 137 -164 53 303 50 -6766 50
-3603 1 -6553 -1 -6555 -3z m10376 -4050 c28 -3 75 -8 105 -11 30 -3 69 -8 85
-11 17 -2 44 -6 60 -8 41 -5 101 -16 155 -27 25 -6 52 -10 60 -11 8 0 67 -13
130 -29 63 -17 126 -32 140 -35 50 -10 347 -113 425 -147 162 -70 212 -93 284
-132 60 -32 75 -45 77 -65 1 -14 5 -77 9 -140 4 -63 9 -137 10 -165 2 -27 7
-97 10 -155 11 -179 13 -212 20 -300 3 -47 7 -123 10 -170 2 -47 7 -123 11
-170 3 -47 8 -114 9 -150 2 -36 6 -114 10 -175 4 -60 8 -121 9 -135 1 -25 0
-25 -85 -28 l-87 -3 -28 48 c-16 26 -33 56 -39 65 -11 19 -70 114 -120 193
-17 28 -69 111 -115 185 -46 74 -116 188 -157 253 -41 65 -81 131 -91 147 -45
77 -128 208 -150 238 -35 46 -274 202 -417 273 -122 59 -237 102 -323 119 -26
5 -57 11 -69 14 -81 17 -278 24 -388 13 -414 -40 -726 -317 -816 -724 -17 -78
-19 -338 -3 -415 61 -292 204 -469 564 -700 82 -53 108 -68 235 -138 33 -18
64 -36 70 -41 5 -5 17 -9 26 -9 10 0 19 -3 21 -7 2 -5 65 -39 141 -76 75 -37
137 -69 137 -70 0 -1 -576 -2 -1280 -2 -840 0 -1282 3 -1288 10 -19 21 -80
220 -96 315 -3 14 -5 25 -6 25 -6 0 -24 230 -24 315 0 77 10 215 19 260 3 14
9 49 15 78 16 90 78 262 134 372 153 305 390 579 706 818 281 213 723 413
1035 467 17 3 37 8 45 10 20 6 108 19 205 31 28 3 51 7 53 9 5 5 505 -3 557
-9z m-6105 -118 l0 -83 -418 -179 c-229 -99 -445 -193 -479 -208 l-63 -28 0
-1043 0 -1042 -762 0 -763 0 -1 1020 c-2 1150 -1 1075 -13 1075 -4 0 -110 49
-234 110 -124 60 -310 150 -413 200 -103 50 -190 93 -193 96 -3 3 -6 41 -6 85
l-1 79 1673 0 1673 0 0 -82z m1763 -2848 c27 -6 68 -19 91 -30 l43 -19 2 -63
c1 -35 4 -83 6 -108 1 -24 1 -50 -2 -56 -10 -27 -46 3 -90 78 -38 62 -57 84
-87 99 -71 34 -145 20 -172 -32 -18 -37 -18 -89 2 -117 16 -24 107 -85 141
-96 38 -12 147 -87 180 -123 96 -106 69 -290 -55 -376 -68 -48 -138 -68 -233
-69 -119 0 -278 45 -280 81 0 9 -2 34 -4 56 -10 130 -8 167 8 176 20 12 26 5
85 -96 55 -93 102 -125 185 -125 88 0 137 43 137 120 0 64 -25 88 -166 160
-164 85 -212 134 -229 237 -16 101 59 224 172 280 85 41 152 47 266 23z
m-5616 -4 c22 -21 8 -39 -51 -66 l-63 -29 0 -353 0 -353 126 -1 c77 0 129 4
133 11 3 5 25 57 48 115 47 117 59 134 83 124 15 -5 17 -26 17 -170 0 -146 -2
-164 -17 -172 -22 -10 -693 -9 -710 1 -25 16 -12 35 42 61 l55 26 -2 357 -3
357 -49 26 c-27 14 -51 31 -54 38 -11 33 14 37 227 36 116 0 214 -4 218 -8z
m1783 -137 c36 -11 71 -23 77 -27 12 -8 29 -214 19 -230 -14 -23 -48 5 -93 78
-49 81 -69 97 -132 104 -133 15 -239 -120 -239 -306 0 -132 47 -231 131 -275
40 -20 159 -22 183 -3 8 8 41 48 71 91 43 60 59 76 74 72 18 -5 19 -12 13 -97
-3 -50 -7 -95 -7 -101 -6 -37 -136 -76 -254 -78 -306 -3 -498 231 -413 505 69
225 324 344 570 267z m2790 10 c160 -38 277 -185 285 -357 6 -130 -22 -213
-101 -301 -52 -58 -124 -98 -207 -115 -205 -43 -403 66 -468 256 -24 69 -21
222 6 288 19 47 71 118 115 157 83 74 237 104 370 72z m1785 6 c22 -3 64 -15
93 -27 46 -19 52 -25 53 -52 0 -17 3 -67 5 -110 4 -58 2 -81 -7 -87 -22 -13
-42 6 -89 85 -50 84 -76 101 -151 99 -83 -2 -142 -48 -187 -143 -23 -48 -26
-68 -26 -155 -1 -152 37 -234 128 -283 36 -18 141 -21 173 -4 11 6 45 45 74
86 53 73 83 96 93 71 10 -28 -6 -190 -21 -207 -28 -31 -181 -67 -264 -62 -158
9 -262 60 -345 169 -72 95 -83 267 -25 388 84 176 272 264 496 232z m4165 -1
c19 -3 56 -15 83 -26 43 -19 47 -23 48 -57 0 -20 3 -64 5 -97 4 -51 2 -63 -11
-68 -24 -9 -30 -3 -79 73 -49 74 -71 88 -134 86 -56 -3 -92 -35 -92 -82 0 -45
24 -67 140 -128 113 -59 182 -123 197 -181 60 -237 -201 -379 -491 -268 -9 3
-16 -2 -18 -12 -3 -16 -17 -18 -133 -19 -72 -1 -137 2 -146 7 -9 4 -30 33 -47
65 -16 32 -46 87 -66 123 -20 36 -47 84 -58 108 -12 23 -27 41 -33 39 -6 -2
-11 -53 -13 -129 l-3 -125 30 -13 c16 -6 37 -20 46 -30 13 -15 14 -20 2 -31
-11 -11 -82 -14 -383 -12 -203 0 -372 1 -376 2 -5 1 -8 10 -8 21 0 15 13 26
45 40 l45 19 -19 43 c-11 24 -26 59 -35 78 l-15 35 -120 1 c-70 0 -121 -3
-121 -9 0 -5 -6 -23 -14 -40 -8 -18 -22 -49 -30 -70 l-16 -38 45 -20 c47 -21
57 -42 28 -57 -22 -10 -604 -9 -621 2 -24 14 -11 37 33 58 l44 22 -4 195 c-5
276 -5 272 -14 241 -5 -14 -17 -45 -28 -70 -12 -25 -58 -133 -103 -240 -46
-107 -87 -200 -92 -206 -8 -11 -63 -12 -74 -2 -5 6 -72 158 -135 313 -28 66
-61 143 -74 170 l-24 50 -1 -70 c-1 -38 -3 -140 -6 -226 l-4 -156 50 -22 c51
-22 63 -44 33 -58 -14 -7 -214 -10 -270 -4 -7 0 -13 10 -13 21 0 13 15 27 48
44 36 18 48 30 48 48 1 34 16 444 19 512 l2 58 -49 21 c-43 17 -49 23 -46 46
l3 26 161 0 161 0 94 -227 c52 -125 97 -228 100 -228 5 0 46 93 126 285 14 33
33 79 44 102 10 24 19 47 19 52 0 15 20 17 169 17 141 -1 144 -1 152 -24 9
-24 3 -28 -74 -56 -18 -6 -18 -19 -11 -243 4 -131 7 -267 8 -302 2 -62 3 -65
36 -83 19 -10 41 -18 48 -18 27 0 67 39 81 76 7 22 19 53 26 69 8 17 30 71 50
120 20 50 42 104 49 120 8 17 35 82 61 145 26 63 55 133 65 155 l18 40 58 -1
c33 -1 62 -2 65 -3 3 0 68 -154 144 -341 128 -313 143 -342 173 -360 40 -24
67 -24 107 -1 l30 18 0 299 0 299 -47 22 c-48 23 -59 42 -35 60 14 11 436 10
487 -2 138 -31 200 -133 159 -262 -10 -30 -45 -68 -97 -103 l-22 -15 85 -140
c77 -127 122 -185 144 -185 5 0 7 19 6 43 -4 57 -7 129 -6 145 1 6 10 12 21
12 18 0 85 -86 103 -132 8 -23 92 -46 147 -42 58 5 94 32 98 73 5 50 -19 74
-125 126 -124 62 -175 102 -203 162 -18 38 -21 59 -17 104 6 65 23 103 69 148
76 75 168 98 298 75z m731 -4 c240 -64 357 -341 242 -575 -13 -27 -39 -65 -56
-83 -32 -34 -103 -87 -122 -92 -5 -1 -20 -6 -33 -11 -28 -11 -118 -25 -152
-24 -158 6 -286 87 -353 224 -30 62 -32 72 -32 176 0 104 2 114 33 177 18 36
51 85 74 108 98 97 258 137 399 100z m-10558 1 c4 0 7 -12 7 -26 0 -20 -9 -28
-49 -46 l-50 -21 3 -221 c2 -205 3 -225 23 -263 27 -51 39 -61 95 -78 62 -18
123 -12 169 19 69 45 73 61 74 317 l2 227 -54 22 c-55 22 -59 28 -44 57 8 15
28 17 153 17 l143 0 3 -27 c3 -24 -3 -29 -45 -48 l-48 -20 -1 -228 c-1 -209
-3 -232 -24 -285 -37 -99 -118 -159 -232 -173 -173 -23 -305 18 -372 115 -47
68 -55 118 -57 352 l-1 217 -49 22 c-48 23 -61 44 -39 66 7 7 347 12 393 5z
m1640 0 c33 -2 16 -43 -28 -66 -22 -11 -42 -23 -45 -27 -3 -4 -6 -139 -5 -300
l0 -293 45 -22 c43 -20 46 -20 74 -5 34 20 37 27 181 377 59 143 115 278 125
301 l18 40 63 -1 63 -1 140 -342 c128 -311 144 -345 174 -364 l33 -21 47 22
47 22 0 289 c0 159 -3 291 -5 293 -3 3 -24 14 -48 26 -37 19 -43 26 -40 49 l3
26 123 1 123 0 47 -54 c106 -124 124 -144 135 -156 7 -7 21 -23 31 -36 46 -56
188 -219 191 -219 2 0 3 82 2 182 l-2 182 -58 20 c-58 21 -78 45 -59 69 12 14
288 17 310 4 27 -18 13 -48 -32 -68 -25 -11 -47 -27 -49 -37 -3 -9 -4 -160 -3
-335 0 -176 -3 -321 -8 -324 -5 -3 -28 -7 -53 -8 -50 -2 -52 0 -153 115 -64
73 -192 218 -296 335 l-54 60 0 -206 0 -205 62 -25 c60 -23 82 -49 55 -66 -17
-10 -648 -11 -669 -1 -30 15 -20 39 22 55 22 9 40 20 40 24 0 17 -51 144 -60
149 -6 3 -60 6 -122 6 l-112 -1 -33 -78 -32 -78 44 -21 c45 -22 56 -40 33 -54
-19 -12 -629 -11 -636 1 -15 24 -8 37 33 57 l43 21 0 298 1 298 -45 26 c-48
28 -48 28 -35 53 8 16 28 17 183 16 95 -1 181 -2 191 -3z m4630 0 c4 0 7 -12
7 -25 0 -19 -9 -28 -44 -42 l-44 -18 1 -121 0 -121 129 0 129 -1 -3 119 -3
119 -40 22 c-22 12 -42 23 -44 24 -2 1 -1 12 2 25 6 23 6 23 189 23 101 0 189
-4 196 -8 26 -17 12 -42 -36 -63 l-47 -21 0 -299 0 -299 48 -22 c45 -22 55
-36 39 -58 -8 -12 -361 -13 -380 -1 -24 14 -11 37 33 58 l46 22 -3 131 -3 130
-125 0 -125 0 0 -130 0 -130 43 -23 c44 -24 58 -61 25 -63 -93 -7 -369 -2
-375 6 -16 21 -6 34 40 55 l49 22 0 300 0 301 -43 19 c-49 21 -58 31 -50 56 5
16 23 17 193 16 104 -1 191 -2 196 -3z m4925 0 c6 0 12 -12 12 -26 0 -21 -9
-29 -45 -45 -27 -12 -43 -24 -40 -32 4 -13 49 -164 86 -287 10 -35 20 -66 22
-68 4 -4 26 50 132 322 26 66 53 125 61 131 15 12 81 13 100 1 6 -3 49 -105
95 -227 46 -121 87 -220 90 -220 3 0 27 73 53 163 26 89 49 170 52 179 4 13
-7 22 -40 38 -47 21 -60 47 -33 67 6 5 62 8 122 7 153 -2 145 -1 145 -28 0
-18 -10 -30 -38 -46 -37 -21 -40 -27 -76 -143 -20 -67 -52 -169 -70 -227 -18
-58 -48 -152 -66 -210 -18 -58 -37 -110 -41 -115 -6 -8 -60 -12 -106 -6 -6 0
-15 11 -18 24 -4 12 -13 36 -20 52 -7 17 -46 112 -86 213 -40 100 -75 179 -79
175 -4 -4 -46 -110 -95 -235 -49 -126 -91 -229 -94 -229 -3 -1 -30 -2 -58 -3
-51 -1 -53 0 -62 29 -11 33 -84 269 -156 500 l-47 150 -42 21 c-44 23 -58 51
-33 69 12 8 299 13 375 6z m-9026 -1020 l28 -1 2 -1012 3 -1012 1085 -1 c597
0 1097 2 1113 4 18 2 27 9 27 22 0 10 4 20 9 23 5 3 12 17 15 30 3 14 19 53
35 88 16 35 55 124 86 198 32 74 65 151 73 170 9 19 16 37 17 40 2 6 4 10 73
170 27 63 59 136 71 162 11 26 21 49 21 52 0 5 10 27 60 141 46 103 63 142 95
220 39 96 68 162 91 209 8 16 14 33 14 37 0 4 13 36 29 71 54 119 78 173 96
221 10 26 24 47 31 48 8 1 44 2 82 2 l67 1 2 -1232 2 -1232 -2792 2 -2792 3 2
70 c1 39 2 75 2 80 1 6 40 29 89 52 48 23 161 78 252 121 91 44 244 118 340
164 l175 85 0 1001 c0 995 0 1001 20 1004 17 3 1391 1 1477 -1z m8801 -4 c13
-5 40 -68 52 -123 2 -10 9 -35 14 -54 6 -19 16 -60 21 -90 6 -30 12 -65 14
-77 26 -134 27 -464 1 -630 -3 -18 -7 -45 -9 -60 -11 -75 -78 -300 -104 -349
-5 -10 -27 -55 -48 -99 -41 -85 -148 -251 -211 -325 -67 -79 -236 -247 -308
-305 -38 -31 -78 -62 -88 -70 -9 -8 -21 -15 -26 -15 -5 0 -11 -3 -13 -7 -10
-24 -227 -153 -371 -221 -250 -119 -495 -197 -803 -256 -12 -2 -45 -8 -75 -11
-30 -4 -65 -9 -79 -11 -94 -14 -218 -19 -440 -19 -258 0 -447 10 -590 30 -19
2 -57 7 -85 11 -27 3 -86 12 -130 20 -44 8 -92 17 -107 19 -14 2 -66 13 -115
25 -48 12 -96 23 -106 25 -82 18 -443 139 -582 195 -123 50 -379 170 -391 182
-7 8 -15 60 -18 123 -4 61 -9 151 -12 200 -3 50 -7 119 -9 155 -3 60 -9 164
-20 335 -11 188 -18 294 -20 340 -2 28 -6 97 -9 155 -3 58 -8 146 -11 195 -3
50 -7 116 -9 148 l-3 57 91 0 91 0 33 -57 c18 -32 44 -78 58 -102 57 -99 320
-553 470 -812 174 -302 159 -283 339 -403 324 -216 685 -328 1055 -330 339 -1
609 70 837 221 262 172 394 433 396 783 0 76 -8 191 -18 238 -49 245 -157 409
-390 590 -94 74 -260 168 -502 288 -100 49 -182 91 -182 94 -1 7 2394 4 2412
-3z"/>
<path d="M5765 7727 c-58 -19 -92 -67 -115 -165 -17 -71 -7 -204 21 -277 33
-90 103 -155 159 -150 8 1 25 3 37 3 66 5 125 119 128 250 5 224 -102 382
-230 339z"/>
<path d="M11036 7733 c-3 -4 -6 -62 -6 -130 0 -91 3 -123 13 -124 64 -8 110
20 123 75 19 76 -1 148 -44 165 -36 14 -79 21 -86 14z"/>
<path d="M10236 7562 c-8 -13 -66 -162 -66 -170 0 -4 34 -8 75 -7 41 0 75 1
75 2 0 7 -73 183 -75 183 -2 0 -6 -4 -9 -8z"/>
<path d="M12455 7733 c-88 -23 -137 -131 -131 -292 7 -182 90 -313 194 -305
12 1 29 2 38 3 28 2 81 68 100 123 21 63 23 196 5 280 -13 62 -60 141 -101
169 -28 20 -75 29 -105 22z"/>
<path d="M4022 7482 c-18 -48 -32 -89 -32 -92 0 -7 150 -7 150 0 0 12 -74 180
-79 180 -3 0 -21 -40 -39 -88z"/>
</g>
</svg>
