<?xml version="1.0" standalone="no"?>
<!DOCTYPE svg PUBLIC "-//W3C//DTD SVG 20010904//EN"
 "http://www.w3.org/TR/2001/REC-SVG-20010904/DTD/svg10.dtd">
<svg version="1.0" xmlns="http://www.w3.org/2000/svg"
 width="1500.000000pt" height="1500.000000pt" viewBox="0 0 1500.000000 1500.000000"
 preserveAspectRatio="xMidYMid meet">
<metadata>
Created by potrace 1.14, written by Peter Selinger 2001-2017
</metadata>
<g transform="translate(0.000000,1500.000000) scale(0.100000,-0.100000)"
fill="#000000" stroke="none">
<path d="M10758 10925 c-2 -2 -25 -6 -53 -9 -97 -12 -185 -25 -205 -31 -8 -2
-31 -7 -50 -11 -45 -8 -65 -12 -65 -14 0 -1 -11 -4 -25 -6 -207 -38 -581 -204
-824 -366 -531 -354 -891 -854 -971 -1348 -25 -158 -25 -318 0 -545 2 -16 4
-30 5 -30 2 0 6 -19 13 -60 12 -73 72 -261 89 -280 6 -7 448 -10 1288 -10 704
0 1280 1 1280 2 0 1 -57 31 -127 66 -71 35 -138 69 -150 75 -13 7 -31 16 -40
20 -16 8 -54 29 -183 100 -232 129 -460 310 -543 432 -17 25 -33 47 -37 50
-10 9 -67 133 -84 183 -35 104 -44 180 -41 332 4 192 22 278 88 417 134 281
411 471 736 505 109 11 312 4 394 -13 12 -3 43 -9 69 -14 86 -17 201 -60 323
-119 144 -71 385 -229 417 -274 22 -30 147 -230 321 -512 86 -139 151 -244
244 -393 32 -51 63 -101 68 -110 6 -9 23 -39 39 -65 l28 -48 87 3 c85 3 86 3
85 28 -1 14 -5 75 -9 135 -4 61 -8 137 -10 170 -1 33 -5 105 -9 160 -4 55 -9
134 -11 175 -3 41 -8 113 -11 160 -3 47 -7 110 -9 140 -2 30 -6 105 -10 165
-4 61 -9 137 -10 170 -3 57 -15 234 -19 283 -3 29 -7 33 -101 80 -179 91 -308
144 -515 212 -132 44 -403 117 -440 118 -8 1 -35 5 -60 11 -54 11 -114 22
-155 27 -16 2 -43 6 -60 8 -16 3 -55 8 -85 11 -30 3 -77 8 -105 11 -52 6 -552
14 -557 9z"/>
<path d="M1869 10877 c-4 -15 -3 -150 1 -156 3 -5 57 -34 120 -64 63 -30 203
-97 310 -149 107 -52 247 -119 310 -150 l115 -55 0 -1044 0 -1044 763 0 762 0
0 1045 0 1045 128 54 c128 55 158 67 267 115 33 15 71 32 85 37 14 6 126 55
250 108 l225 97 3 82 3 82 -1671 -1 c-918 0 -1670 -1 -1671 -2z"/>
<path d="M6940 8113 c-132 -57 -190 -192 -124 -289 34 -49 42 -55 143 -106
105 -53 141 -88 141 -133 0 -70 -30 -101 -104 -111 -34 -5 -55 -1 -90 16 -39
18 -52 33 -82 91 -20 38 -41 69 -46 69 -5 0 -8 -36 -6 -82 2 -62 7 -87 20
-100 27 -27 96 -42 193 -43 82 0 95 3 145 30 71 39 110 94 114 161 6 97 -34
153 -151 216 -140 75 -169 108 -151 175 12 47 52 74 100 69 58 -7 90 -31 128
-97 19 -33 39 -58 44 -56 9 3 10 116 0 149 -13 44 -200 73 -274 41z"/>
<path d="M2013 8095 c15 -14 34 -25 41 -25 8 0 16 -7 19 -15 4 -8 6 -138 6
-289 l1 -275 -40 -18 c-86 -39 -67 -43 230 -43 l280 0 0 130 c0 72 -4 130 -9
130 -5 0 -26 -44 -48 -97 l-39 -98 -112 -3 -112 -3 0 284 0 283 50 23 c28 13
48 27 44 32 -3 5 -80 9 -172 9 l-167 -1 28 -24z"/>
<path d="M3603 8011 c-147 -50 -225 -161 -219 -312 5 -166 122 -271 306 -276
82 -2 176 18 200 43 11 12 19 143 9 149 -4 3 -26 -21 -47 -53 -51 -74 -59 -80
-107 -83 -63 -5 -109 9 -142 41 -52 51 -67 94 -67 195 -1 79 2 97 27 148 32
65 80 103 137 110 66 7 92 -7 135 -77 58 -94 68 -94 61 6 -7 92 -14 101 -89
117 -70 16 -145 13 -204 -8z"/>
<path d="M6013 8016 c-130 -41 -211 -169 -201 -315 8 -112 57 -189 155 -247
37 -21 61 -27 125 -30 138 -6 233 47 289 161 28 56 32 75 31 141 -1 65 -6 87
-32 141 -65 131 -221 194 -367 149z m157 -66 c16 -11 41 -46 57 -78 26 -52 28
-67 28 -167 0 -95 -3 -116 -23 -152 -39 -73 -94 -94 -161 -61 -104 51 -147
311 -69 420 46 65 110 79 168 38z"/>
<path d="M7560 8012 c-97 -36 -174 -111 -205 -199 -20 -56 -13 -178 13 -229
64 -125 215 -186 384 -155 92 18 106 32 110 113 2 37 -1 69 -6 70 -5 2 -27
-23 -49 -55 -44 -65 -60 -76 -114 -81 -75 -6 -135 31 -175 106 -19 36 -22 58
-22 138 0 79 4 102 23 139 41 78 88 113 156 114 62 1 84 -14 130 -89 22 -35
43 -64 47 -64 4 0 6 30 4 68 -3 37 -5 74 -5 83 -3 48 -197 75 -291 41z"/>
<path d="M11095 8011 c-117 -55 -154 -181 -79 -271 15 -17 59 -47 98 -67 108
-54 136 -78 136 -117 0 -65 -79 -98 -165 -69 -32 11 -48 26 -79 74 -21 33 -41
58 -44 54 -6 -6 -4 -74 3 -111 2 -10 4 -24 4 -31 2 -24 93 -48 182 -48 78 0
90 3 134 30 57 35 88 88 88 149 0 79 -35 118 -168 190 -108 58 -129 97 -82
152 19 22 32 27 70 27 55 0 67 -9 115 -83 40 -62 46 -57 40 38 -3 55 -4 58
-43 77 -56 27 -158 30 -210 6z"/>
<path d="M11683 8016 c-78 -25 -134 -75 -174 -155 -34 -66 -35 -205 -1 -273
29 -58 83 -112 142 -141 63 -30 195 -31 260 -1 154 71 218 262 142 417 -32 64
-75 108 -141 142 -45 23 -172 29 -228 11z m160 -68 c107 -75 117 -385 14 -452
-36 -24 -73 -26 -114 -5 -125 62 -152 354 -41 456 39 35 90 36 141 1z"/>
<path d="M2612 8008 c3 -7 21 -21 41 -31 l37 -17 0 -168 c1 -188 7 -227 45
-282 42 -60 101 -84 210 -84 106 -1 150 12 197 59 52 53 61 95 63 299 l1 179
37 14 c20 8 37 21 37 29 0 11 -23 14 -110 14 -123 0 -142 -12 -67 -42 l42 -18
-1 -179 c-2 -212 -10 -237 -81 -272 -35 -17 -55 -20 -94 -16 -111 13 -131 58
-133 295 l-2 172 38 17 c21 9 38 23 38 30 0 10 -33 13 -151 13 -116 0 -150 -3
-147 -12z"/>
<path d="M4026 8002 c12 -9 29 -22 39 -27 15 -9 17 -34 17 -250 0 -216 -2
-241 -17 -250 -10 -5 -27 -18 -39 -27 -20 -17 -15 -17 127 -18 152 0 177 7
112 34 l-35 15 0 245 0 246 35 14 c66 28 41 36 -112 36 -142 -1 -147 -1 -127
-18z"/>
<path d="M4610 7938 c-18 -46 -41 -101 -50 -123 -10 -22 -46 -108 -80 -191
-48 -118 -67 -154 -86 -163 -47 -21 -25 -31 72 -31 82 0 95 2 85 14 -7 8 -23
17 -36 20 -31 8 -31 11 1 91 l26 65 99 0 c110 0 101 6 139 -89 l20 -51 -35
-17 c-19 -9 -35 -20 -35 -25 0 -4 63 -8 140 -8 77 0 140 4 140 9 0 5 -15 18
-32 29 -29 17 -42 41 -102 193 -38 96 -77 192 -86 214 -10 22 -27 63 -38 90
-20 48 -22 50 -65 53 l-44 3 -33 -83z m70 -158 c18 -38 32 -86 28 -97 -2 -5
-35 -8 -74 -8 -63 0 -70 2 -66 18 2 9 8 20 13 23 5 3 9 11 9 18 0 8 12 40 26
72 25 57 27 58 37 34 5 -14 18 -41 27 -60z"/>
<path d="M5072 8008 c3 -7 20 -21 39 -30 l35 -16 -2 -234 c-1 -128 -2 -236 -3
-239 0 -3 -17 -13 -36 -22 -61 -29 -42 -37 85 -37 98 0 118 3 114 14 -3 8 -25
19 -50 26 l-44 13 0 181 0 181 28 -30 c15 -16 77 -86 137 -155 60 -69 114
-130 120 -136 5 -6 26 -30 45 -52 30 -35 41 -42 73 -42 l37 0 0 268 0 268 35
13 c19 7 35 19 35 27 0 11 -22 14 -115 14 -91 0 -115 -3 -115 -14 0 -7 20 -19
45 -26 25 -7 46 -20 49 -29 2 -9 5 -83 5 -166 l0 -150 -36 40 c-67 74 -169
192 -279 323 -17 20 -27 22 -112 22 -70 0 -93 -3 -90 -12z"/>
<path d="M7986 8007 c2 -7 20 -19 39 -26 l34 -12 0 -234 c0 -129 -2 -242 -5
-250 -4 -8 -12 -15 -19 -15 -7 0 -23 -9 -36 -20 l-24 -19 153 -1 c83 0 152 2
152 5 0 3 -17 15 -37 28 l-38 24 0 106 c-1 67 3 108 9 110 6 2 56 3 111 2
l100 0 3 -113 3 -112 -36 -17 c-19 -9 -35 -20 -35 -25 0 -4 65 -8 145 -8 80 0
145 3 145 8 0 4 -17 16 -37 27 l-37 20 -1 225 c0 124 2 233 4 244 2 10 19 25
37 32 63 26 38 34 -111 34 -152 0 -173 -7 -110 -37 l35 -17 0 -103 0 -104
-112 3 -113 3 0 100 0 100 38 21 c20 11 34 24 30 27 -3 4 -71 7 -149 7 -114 0
-142 -3 -138 -13z"/>
<path d="M8750 8010 c0 -5 16 -16 35 -24 32 -14 40 -29 37 -66 0 -4 -4 -100
-7 -215 -4 -116 -11 -215 -16 -221 -6 -7 -23 -17 -39 -24 -53 -22 -32 -30 75
-30 112 0 130 9 69 35 l-36 15 5 202 c3 112 6 205 6 208 1 3 21 -42 45 -100
24 -58 68 -163 97 -233 77 -184 75 -185 197 105 53 125 97 226 99 225 1 -2 4
-93 7 -204 l4 -200 -34 -17 c-62 -29 -41 -36 106 -36 77 0 140 4 140 9 0 5
-15 18 -32 28 l-33 19 -3 110 c-1 60 -4 170 -7 245 l-4 136 40 12 c69 21 44
31 -77 31 l-115 0 -25 -57 c-36 -85 -43 -101 -53 -125 -50 -120 -69 -166 -75
-183 -9 -25 -4 -35 -96 188 l-74 177 -118 0 c-71 0 -118 -4 -118 -10z"/>
<path d="M9840 7938 c-18 -46 -41 -101 -51 -123 -48 -109 -129 -313 -129 -323
0 -6 -13 -18 -30 -27 -51 -26 -35 -35 66 -35 82 0 95 2 85 14 -7 8 -23 17 -36
20 -31 8 -31 11 1 91 l26 65 103 0 c89 0 103 -2 108 -17 2 -10 14 -42 26 -71
l21 -52 -35 -17 c-19 -9 -35 -20 -35 -25 0 -4 63 -8 140 -8 77 0 140 4 140 9
0 5 -15 18 -32 29 -29 17 -41 40 -92 168 -32 82 -65 163 -72 179 -8 17 -29 68
-48 115 l-34 85 -44 3 -44 3 -34 -83z m102 -248 c2 -11 -12 -14 -73 -15 l-76
-1 40 98 40 98 33 -82 c19 -46 35 -90 36 -98z"/>
<path d="M10300 8012 c0 -5 18 -17 39 -27 l40 -17 0 -243 0 -242 -39 -18 c-22
-10 -40 -22 -40 -27 0 -4 65 -8 145 -8 80 0 145 4 145 8 0 5 -15 17 -33 26
l-32 18 0 104 c0 73 3 105 12 108 19 8 33 -11 103 -142 l65 -122 108 0 c59 0
107 3 107 8 0 4 -17 16 -37 27 -20 11 -44 32 -52 47 -9 15 -41 69 -71 120 -30
51 -56 95 -58 99 -2 4 13 16 32 27 97 57 99 178 3 233 -40 23 -52 24 -239 27
-117 2 -198 0 -198 -6z m311 -57 c32 -17 49 -49 49 -95 0 -64 -45 -110 -107
-110 l-29 0 2 103 c1 56 2 105 3 110 2 12 51 8 82 -8z"/>
<path d="M12130 8010 c0 -6 16 -20 35 -31 31 -19 37 -31 70 -137 20 -64 49
-157 65 -207 16 -49 36 -116 45 -147 16 -58 17 -58 55 -58 21 0 40 6 43 13 2
6 35 91 72 187 37 96 71 178 74 183 4 4 42 -81 85 -188 l78 -195 37 0 c36 0
38 2 50 43 7 23 35 114 63 202 27 88 59 190 71 227 17 55 26 69 49 79 15 6 28
18 28 25 0 11 -22 14 -100 14 -57 0 -100 -4 -100 -10 0 -5 16 -17 35 -26 19
-9 35 -21 35 -28 0 -16 -87 -317 -94 -324 -3 -3 -6 1 -6 8 0 7 -15 52 -34 99
-18 47 -50 130 -71 184 l-37 97 -37 0 c-41 0 -29 23 -131 -243 -30 -75 -57
-134 -61 -130 -4 5 -26 71 -48 148 -23 77 -44 148 -47 157 -3 12 5 20 31 29
19 7 35 19 35 26 0 10 -33 13 -145 13 -93 0 -145 -4 -145 -10z"/>
<path d="M3303 7332 c-6 -4 -9 -73 -9 -177 l1 -170 38 -3 37 -3 -2 177 -3 177
-26 3 c-14 1 -30 -1 -36 -4z"/>
<path d="M3796 7331 c-2 -3 -3 -82 -2 -176 l1 -170 38 -3 37 -3 -2 177 -3 177
-33 2 c-18 1 -34 -1 -36 -4z"/>
<path d="M10424 7332 c-7 -4 -10 -68 -10 -177 l1 -170 38 -3 37 -3 0 175 c0
97 -3 176 -7 177 -5 0 -17 2 -28 4 -11 2 -25 1 -31 -3z"/>
<path d="M6686 7321 c-2 -3 -4 -82 -4 -174 l-1 -167 39 0 39 0 -1 48 c0 75 1
77 27 38 14 -20 25 -39 25 -41 0 -3 8 -14 17 -25 13 -14 30 -20 61 -20 l44 0
-24 33 c-13 17 -35 47 -48 65 l-24 32 42 60 c23 32 42 61 42 65 0 3 -18 5 -39
5 -37 0 -43 -4 -78 -55 -21 -30 -40 -55 -43 -55 -3 0 -5 44 -5 97 l0 98 -33 1
c-18 1 -34 -2 -36 -5z"/>
<path d="M2027 7313 c-2 -5 -3 -80 -3 -168 l1 -160 41 -3 40 -3 -1 66 -2 65
59 0 c58 0 58 0 58 30 0 30 0 30 -58 30 l-58 0 2 43 c1 23 2 45 3 48 0 4 29 6
63 5 61 -1 63 0 65 27 l2 27 -104 0 c-57 0 -106 -3 -108 -7z"/>
<path d="M4353 7314 c-36 -8 -73 -53 -73 -88 0 -39 27 -70 85 -97 57 -27 72
-44 55 -64 -16 -19 -61 -19 -105 -1 l-34 14 3 -39 c2 -22 6 -43 10 -47 4 -4
40 -7 79 -7 85 0 123 21 133 73 10 53 -10 86 -74 119 -40 20 -57 34 -57 48 0
17 7 20 45 19 25 0 53 -4 62 -8 15 -7 17 -3 14 28 -1 20 -5 38 -8 41 -8 8
-108 14 -135 9z"/>
<path d="M7819 7318 c-1 -2 -3 -78 -4 -170 l-1 -168 76 0 c116 0 171 25 207
94 25 47 19 132 -12 172 -40 52 -87 71 -182 73 -46 1 -84 1 -84 -1z m181 -85
c25 -23 31 -36 32 -71 1 -53 -17 -96 -45 -110 -27 -14 -87 -23 -88 -14 -3 29
-5 209 -2 215 10 18 74 6 103 -20z"/>
<path d="M4921 7280 c3 -29 -1 -39 -18 -42 -10 -2 -17 -13 -17 -29 -1 -21 3
-26 16 -24 13 3 18 -3 19 -18 4 -168 10 -180 92 -183 52 -2 53 -2 52 27 0 24
-4 29 -20 27 -37 -5 -45 10 -45 82 l0 70 30 -4 c27 -3 30 -1 30 25 0 26 -4 29
-30 29 -25 0 -30 4 -30 25 0 14 -3 25 -7 26 -49 7 -73 3 -72 -11z"/>
<path d="M2630 7135 c0 -99 2 -107 25 -130 28 -29 72 -32 116 -10 22 12 29 12
27 3 -2 -8 11 -14 35 -16 l37 -3 0 130 0 131 -38 0 -38 0 1 -74 c1 -84 -6
-110 -33 -125 -14 -7 -24 -7 -38 3 -16 12 -19 28 -19 103 l0 88 -37 3 -38 3 0
-106z"/>
<path d="M5488 7233 c-13 -3 -18 -14 -18 -38 l0 -33 37 13 c44 15 77 6 81 -24
3 -18 -1 -21 -32 -21 -49 0 -47 0 -78 -22 -59 -41 -22 -128 55 -128 20 0 39 5
43 11 4 8 9 8 17 0 6 -6 26 -11 44 -11 l33 0 0 95 c0 108 -11 140 -53 155 -30
10 -96 12 -129 3z m100 -175 c-3 -25 -34 -36 -50 -20 -17 17 -1 42 27 42 22 0
26 -4 23 -22z"/>
<path d="M6155 7233 c-48 -12 -85 -70 -85 -134 0 -36 6 -48 38 -78 40 -38 83
-49 144 -36 23 5 28 12 28 36 0 27 -2 29 -27 22 -59 -14 -94 5 -107 58 -12 55
56 101 109 73 24 -12 25 -12 25 15 0 16 -6 33 -12 38 -14 10 -82 14 -113 6z"/>
<path d="M8564 7221 c-35 -21 -54 -65 -54 -123 0 -29 8 -46 33 -74 27 -30 40
-36 88 -41 71 -7 99 7 99 49 0 23 -3 28 -12 21 -24 -19 -61 -22 -95 -8 -54 23
-40 35 42 35 43 0 76 4 76 10 3 25 3 38 -4 73 -14 69 -105 99 -173 58z m107
-62 c5 -11 6 -19 2 -20 -65 -6 -84 -6 -87 0 -11 17 38 53 61 44 8 -3 18 -14
24 -24z"/>
<path d="M9157 7148 c19 -51 41 -109 48 -128 11 -31 17 -35 52 -38 l40 -3 33
88 c18 48 41 107 51 131 l18 43 -41 -3 -42 -3 -27 -85 c-15 -47 -25 -88 -22
-92 2 -5 1 -8 -4 -8 -4 0 -16 30 -25 68 -29 117 -32 122 -77 122 l-40 0 36
-92z"/>
<path d="M9832 7224 c-41 -21 -62 -60 -62 -117 0 -35 6 -51 33 -81 36 -41 73
-52 144 -41 39 6 43 9 43 36 0 32 -5 34 -45 19 -19 -7 -35 -6 -60 5 -56 23
-42 35 40 35 77 0 76 -1 78 43 2 27 -15 76 -32 91 -27 25 -100 30 -139 10z
m96 -70 c3 -20 -1 -21 -40 -19 -31 1 -42 6 -40 16 9 36 75 38 80 3z"/>
<path d="M10941 7205 c-68 -63 -48 -188 34 -215 102 -34 189 31 179 134 -8 75
-59 119 -137 114 -31 -2 -51 -10 -76 -33z m130 -49 c8 -82 7 -86 -18 -106 -32
-25 -59 -13 -71 33 -17 61 20 115 64 95 13 -6 24 -16 25 -22z"/>
<path d="M11561 7065 l0 -175 39 0 39 0 -1 53 c-2 55 3 60 41 45 53 -20 110 4
135 56 54 115 -42 236 -146 182 -23 -12 -27 -12 -32 0 -3 8 -19 14 -40 14
l-34 0 -1 -175z m176 96 c27 -35 9 -116 -27 -121 -47 -7 -70 18 -70 75 0 38 4
46 27 59 30 15 51 11 70 -13z"/>
<path d="M12282 7225 c-56 -24 -79 -112 -47 -179 20 -41 46 -57 110 -63 63 -7
95 8 95 43 0 25 -11 26 -68 8 -16 -5 -72 23 -72 36 0 6 33 10 75 10 43 0 76 4
76 10 7 56 -2 93 -30 119 -34 32 -89 38 -139 16z m96 -73 c-2 -10 -14 -17 -33
-18 -55 -3 -66 19 -20 44 25 13 58 -3 53 -26z"/>
<path d="M12860 7110 l0 -131 38 3 37 3 1 65 c0 36 4 75 8 87 8 24 47 40 65
28 7 -4 11 8 11 34 0 33 -4 41 -18 41 -10 0 -27 -7 -38 -15 -24 -18 -35 -19
-31 -2 1 7 -12 13 -35 15 l-38 3 0 -131z"/>
<path d="M2745 6802 c-20 -3 -20 -9 -20 -1004 l0 -1001 -185 -90 c-102 -49
-225 -108 -275 -132 -157 -74 -390 -187 -394 -190 -2 -2 -4 -39 -5 -82 l-1
-78 2792 -3 2792 -2 -2 1232 -2 1232 -67 -1 c-38 0 -74 -1 -82 -2 -7 -1 -21
-22 -31 -48 -18 -48 -42 -102 -96 -221 -16 -35 -29 -67 -29 -71 0 -4 -6 -21
-14 -37 -23 -47 -52 -113 -91 -209 -32 -78 -49 -117 -95 -220 -50 -114 -60
-136 -60 -141 0 -3 -10 -26 -21 -52 -12 -26 -44 -99 -71 -162 -69 -160 -71
-164 -73 -170 -1 -3 -8 -21 -17 -40 -8 -19 -41 -96 -73 -170 -31 -74 -70 -163
-86 -198 -16 -35 -32 -74 -35 -88 -3 -13 -10 -27 -15 -30 -5 -3 -9 -13 -9 -23
0 -13 -9 -20 -27 -22 -16 -2 -516 -4 -1113 -4 l-1085 1 -3 1012 -2 1012 -23 1
c-71 2 -1465 4 -1482 1z"/>
<path d="M10611 6800 c0 -3 82 -45 182 -94 99 -49 217 -110 262 -134 79 -45
225 -139 235 -152 3 -4 13 -11 22 -16 39 -21 163 -144 212 -209 85 -112 132
-219 161 -367 30 -149 21 -384 -20 -528 -8 -30 -17 -62 -19 -70 -10 -37 -52
-120 -91 -180 -123 -192 -386 -359 -660 -419 -511 -113 -1033 -13 -1480 285
-180 120 -165 101 -339 403 -150 259 -413 713 -470 812 -14 24 -40 70 -58 102
l-33 57 -91 0 -91 0 3 -57 c2 -32 6 -98 9 -148 3 -49 8 -137 11 -195 3 -58 7
-127 9 -155 1 -27 6 -99 9 -160 4 -60 9 -141 12 -180 2 -38 6 -113 9 -165 10
-176 14 -245 19 -325 3 -44 8 -132 12 -195 3 -63 10 -120 15 -126 8 -10 233
-117 334 -159 17 -7 44 -18 60 -25 132 -54 494 -175 584 -195 12 -3 29 -7 39
-9 86 -21 161 -38 182 -41 14 -3 61 -11 105 -19 44 -8 103 -17 130 -20 28 -4
66 -9 85 -11 150 -21 336 -30 610 -29 242 0 314 3 420 18 14 2 49 7 79 11 59
7 60 8 176 31 113 22 367 94 440 124 11 5 51 20 88 35 227 87 469 227 657 378
77 62 256 238 323 317 63 74 170 240 211 325 21 44 43 89 48 99 26 49 92 271
105 351 34 217 37 558 7 700 -3 11 -9 42 -14 69 -6 27 -15 68 -22 90 -6 23
-12 46 -14 53 -7 36 -37 114 -46 119 -12 8 -2418 11 -2417 4z"/>
</g>
</svg>
